<svg id="visual" viewBox="0 0 960 540" width="960" height="540" xmlns="http://www.w3.org/2000/svg" xmlns:xlink="http://www.w3.org/1999/xlink" version="1.1"><path d="M0 6L40 16.8C80 27.7 160 49.3 240 66.5C320 83.7 400 96.3 480 106.3C560 116.3 640 123.7 720 127.3C800 131 880 131 920 131L960 131L960 0L920 0C880 0 800 0 720 0C640 0 560 0 480 0C400 0 320 0 240 0C160 0 80 0 40 0L0 0Z" fill="#141940"></path><path d="M0 17L40 70.2C80 123.3 160 229.7 240 255.8C320 282 400 228 480 198.3C560 168.7 640 163.3 720 164.2C800 165 880 172 920 175.5L960 179L960 129L920 129C880 129 800 129 720 125.3C640 121.7 560 114.3 480 104.3C400 94.3 320 81.7 240 64.5C160 47.3 80 25.7 40 14.8L0 4Z" fill="#242760"></path><path d="M0 222L40 249C80 276 160 330 240 346.3C320 362.7 400 341.3 480 309C560 276.7 640 233.3 720 218.8C800 204.3 880 218.7 920 225.8L960 233L960 177L920 173.5C880 170 800 163 720 162.2C640 161.3 560 166.7 480 196.3C400 226 320 280 240 253.8C160 227.7 80 121.3 40 68.2L0 15Z" fill="#3d3f7e"></path><path d="M0 255L40 292.8C80 330.7 160 406.3 240 437.8C320 469.3 400 456.7 480 417C560 377.3 640 310.7 720 285.5C800 260.3 880 276.7 920 284.8L960 293L960 231L920 223.8C880 216.7 800 202.3 720 216.8C640 231.3 560 274.7 480 307C400 339.3 320 360.7 240 344.3C160 328 80 274 40 247L0 220Z" fill="#242760"></path><path d="M0 541L40 541C80 541 160 541 240 541C320 541 400 541 480 541C560 541 640 541 720 541C800 541 880 541 920 541L960 541L960 291L920 282.8C880 274.7 800 258.3 720 283.5C640 308.7 560 375.3 480 415C400 454.7 320 467.3 240 435.8C160 404.3 80 328.7 40 290.8L0 253Z" fill="#141940"></path></svg>